# xmcd
#
# Track frame offsets: 
#        150
#        19810
#        34955
#        54042
#        72487
#        88237
#        108112
#        125690
#        141707
#        160430
#        178520
#
# Disc length: 2679 seconds
#
# Revision: 0
# Processed by: cddbd v1.5.2PL0 Copyright (c) Steve Scherf et al.
# Submitted via: ExactAudioCopy v0.95b4
#
DISCID=9e0a750b
DTITLE=Anita Pajunen - Tulivuori
DYEAR=1993
DGENRE=Other
TTITLE0=En Jää Hyvästelemään
TTITLE1=Tulivuori
TTITLE2=Purppuramyrsky
TTITLE3=En Rakastunut
TTITLE4=Portit Eiliseen
TTITLE5=Enkeli Huoneessain
TTITLE6=Lauantaiyöt
TTITLE7=Kun Sillat Palavat
TTITLE8=Nuku Poika Pieni
TTITLE9=Tän Yön Oon Taas Yksin
TTITLE10=Uni
EXTD=
EXTT0=
EXTT1=
EXTT2=
EXTT3=
EXTT4=
EXTT5=
EXTT6=
EXTT7=
EXTT8=
EXTT9=
EXTT10=
PLAYORDER=
